<!DOCTYPE svg PUBLIC "-//W3C//DTD SVG 1.1//EN" "http://www.w3.org/Graphics/SVG/1.1/DTD/svg11.dtd">
<!-- Uploaded to: SVG Repo, www.svgrepo.com, Transformed by: SVG Repo Mixer Tools -->
<svg fill="#012169" version="1.1" id="Capa_1" xmlns="http://www.w3.org/2000/svg" xmlns:xlink="http://www.w3.org/1999/xlink" width="800px" height="800px" viewBox="0 0 266.863 266.864" xml:space="preserve">
<g id="SVGRepo_bgCarrier" stroke-width="0"/>
<g id="SVGRepo_tracerCarrier" stroke-linecap="round" stroke-linejoin="round"/>
<g id="SVGRepo_iconCarrier"> <g> <g> <path d="M220.244,139.512h44.135c1.376,0,2.484-1.124,2.484-2.481c0-1.361-1.114-2.497-2.484-2.497H220.61 c-0.062-3.845-0.938-7.754-2.668-11.472c4.153-2.719,8.879-6.439,4.896-15.296c-1.688-3.77-6.102-5.916-4.944-18.387 c0,0-7.332,3.13-10.054,11.561c-6.095-13.862-20.015-7.727-20.015-7.727c6.497,4.123,4.043,9.487,8.208,15.622 c-8.684-0.344-14.078,5.273-14.078,5.273c12.068,3.386,12.495,8.269,15.418,11.207c7.026,7.063,12.33,3.614,16.367,0.646 c2.29,5.371,2.631,11.167,0.719,16.188c-1.863,4.883-5.675,8.658-10.729,10.606c-7.538,2.911-14.096,1.681-20.398-1.267 c-0.329-0.146-0.664-0.311-1.011-0.463c-0.426-0.207-0.864-0.45-1.291-0.682c-7.002-5.364-9.231-11.843-6.405-18.472 c0.036,0.013,0.072,0.037,0.109,0.043c0.444,0.095,0.907,0.131,1.352,0.131c3.873,0,7.148-2.762,7.824-6.576 c0.384-2.101-0.091-4.217-1.309-5.943c-1.218-1.726-3.039-2.886-5.134-3.248c-4.39-0.798-8.445,2.195-9.188,6.43 c-0.383,2.083,0.086,4.178,1.291,5.916c0.195,0.292,0.512,0.447,0.743,0.703c-2.186,4.683-2.484,9.368-0.962,13.771 c-1.863-1.212-3.715-2.46-5.578-3.55c-3.616-2.149-7.069-4.141-10.455-5.699c0.92-0.192,1.852-0.436,2.759-0.768 c9.962-3.498,15.223-14.422,11.733-24.39c-2.892-8.214-11.922-12.583-20.137-9.697c-6.844,2.414-10.455,9.94-8.05,16.76 c0.013,0.055,0.037,0.113,0.049,0.155c-0.408-0.292-0.907-0.441-1.419-0.441h-2.256v-10.19c0.019-0.024,0.067-0.049,0.085-0.085 l1.824-2.67c0.512-0.761,0.572-1.75,0.128-2.569c-0.444-0.816-1.276-1.327-2.208-1.327h-4.648c-0.923,0-1.772,0.511-2.208,1.327 c-0.438,0.819-0.38,1.802,0.137,2.569l1.814,2.683c0.012,0.036,0.061,0.049,0.079,0.073v10.19h-2.244 c-0.511,0-1.004,0.149-1.416,0.429c0.018-0.055,0.037-0.106,0.058-0.137c2.399-6.841-1.212-14.364-8.056-16.772 c-8.232-2.85-17.266,1.482-20.143,9.709c-3.489,9.974,1.778,20.913,11.731,24.39c0.935,0.338,1.888,0.527,2.837,0.731 c-3.407,1.559-6.878,3.571-10.519,5.736c-1.854,1.097-3.711,2.339-5.575,3.568c1.52-4.415,1.215-9.097-0.962-13.78 c0.237-0.265,0.545-0.432,0.749-0.725c1.203-1.738,1.665-3.833,1.285-5.873c-0.743-4.272-4.832-7.259-9.186-6.455 c-2.095,0.375-3.915,1.528-5.136,3.249c-1.224,1.732-1.689,3.848-1.315,5.955c0.673,3.79,3.964,6.567,7.818,6.567 c0.448,0,0.904-0.04,1.37-0.134c0.033-0.006,0.064-0.031,0.094-0.037c2.832,6.622,0.594,13.113-6.421,18.478 c-0.42,0.231-0.837,0.476-1.261,0.67c-0.362,0.158-0.718,0.341-1.071,0.499c-6.281,2.923-12.821,4.141-20.359,1.242 c-5.057-1.948-8.866-5.724-10.726-10.607c-1.912-5.023-1.565-10.799,0.712-16.19c4.053,2.98,9.341,6.402,16.374-0.648 c2.917-2.944,3.361-7.825,15.415-11.214c0,0-5.401-5.593-14.075-5.273c4.165-6.117,1.72-11.493,8.217-15.613 c0,0-13.935-6.122-20.015,7.725c-2.731-8.437-10.069-11.561-10.069-11.561c1.16,12.471-3.249,14.623-4.938,18.396 c-3.979,8.848,0.755,12.602,4.901,15.293c-1.729,3.724-2.606,7.62-2.67,11.481H2.493c-1.379,0-2.493,1.124-2.493,2.487 s1.114,2.488,2.493,2.488h44.284c0.268,1.474,0.584,2.972,1.124,4.372c0.815,2.143,2.019,4.031,3.379,5.809H2.5 c-1.379,0-2.494,1.121-2.494,2.484c0,1.357,1.114,2.496,2.494,2.496h53.737c0.073,0,0.131-0.055,0.204-0.055 c1.559,1.078,3.218,2.01,5.051,2.734c3.623,1.406,7.061,1.985,10.339,1.985c3.571,0,6.951-0.731,10.193-1.888 c0.38,0.012,0.761-0.049,1.124-0.231c4.076-1.997,7.632-3.507,10.841-3.812c-0.917,1.175-1.625,2.594-1.894,4.371 c-1.081,6.888,4.481,9.768,10.775,12.35c2.35,0.975,4.563,2.46,7.688,6.381c0.481,0.609,1.196,0.944,1.952,0.944 c0.143,0,0.286-0.013,0.429-0.049c0.904-0.152,1.647-0.792,1.933-1.675c0.207-0.633,5.015-15.26,0.076-23.602 c-1.766-2.983-4.485-4.805-8.095-5.468c-0.137-0.024-0.679-0.062-0.822-0.062c-1.403,0-3.571,0.585-5.063,2.205 c-0.137,0.158-0.213,0.359-0.329,0.512c-0.794-0.342-1.586-0.598-2.39-0.756c0.183-0.134,0.375-0.256,0.561-0.377 c2.338-1.559,4.658-3.105,6.978-4.488c4.284-2.515,7.907-4.6,11.174-5.991c-1.376,1.602-2.119,3.604-2.019,5.712 c0.109,2.594,1.221,4.986,3.129,6.722c1.797,1.65,4.089,2.527,6.498,2.527c0.149,0,0.298,0,0.447-0.013 c0.301-0.012,0.588-0.097,0.886-0.134c-0.07,0.597-0.006,1.169,0.332,1.681l4.052,6.004c0.78,1.139,1.952,1.766,3.209,1.766 c1.267,0,2.439-0.645,3.225-1.79l4.037-5.967c0.347-0.499,0.396-1.097,0.341-1.693c0.286,0.049,0.561,0.122,0.853,0.134 c2.527,0.067,5.066-0.767,6.979-2.515c1.924-1.735,3.026-4.128,3.136-6.722c0.104-2.119-0.651-4.123-2.028-5.725 c3.258,1.392,6.894,3.478,11.18,6.004c2.326,1.383,4.628,2.93,6.967,4.476c0.188,0.134,0.39,0.256,0.572,0.378 c-0.804,0.17-1.607,0.426-2.399,0.768c-0.134-0.158-0.183-0.365-0.329-0.512c-1.485-1.645-3.653-2.205-5.065-2.205 c-0.141,0-0.683,0.049-0.841,0.074c-3.593,0.645-6.309,2.472-8.074,5.455c-4.938,8.342-0.134,22.999,0.073,23.602 c0.28,0.883,1.035,1.51,1.937,1.675c0.134,0.036,0.286,0.049,0.426,0.049c0.755,0,1.474-0.359,1.949-0.944 c3.123-3.945,5.334-5.406,7.684-6.369c6.303-2.594,11.856-5.492,10.778-12.349c-0.268-1.79-0.975-3.215-1.899-4.384 c3.209,0.316,6.765,1.814,10.838,3.812c0.365,0.171,0.743,0.231,1.114,0.231c3.246,1.156,6.619,1.888,10.206,1.888 c3.282,0,6.729-0.609,10.346-1.985c1.814-0.688,3.458-1.632,4.999-2.691h53.846c1.377,0,2.491-1.133,2.491-2.496 c0-1.352-1.114-2.479-2.491-2.479h-48.634c1.358-1.76,2.563-3.666,3.38-5.815C219.66,142.477,219.977,140.992,220.244,139.512z M93.368,125.713c-0.457,0.649-1.147,1.097-1.933,1.228c-1.61,0.28-3.13-0.822-3.413-2.405c-0.137-0.779,0.034-1.565,0.487-2.21 c0.457-0.646,1.142-1.078,2.445-1.251c1.403,0,2.643,1.047,2.886,2.469C93.971,124.292,93.81,125.065,93.368,125.713z M100.206,155.422c0.469,0,0.779,0.062,0.95,0.098c1.675,1.395,3.261,3.502,4.786,6.57c0.438,0.883,1.315,1.389,2.235,1.389 c0.371,0,0.752-0.086,1.108-0.269c1.236-0.608,1.732-2.106,1.123-3.331c-1.723-3.477-3.611-5.955-5.581-7.757 c0.369-0.28,0.892-0.463,1.154-0.476c2.131,0.384,3.653,1.4,4.665,3.094c2.274,3.824,1.62,10.425,0.627,15.162 c-2.049-1.973-4.095-3.324-6.509-4.323c-7.749-3.19-8.099-4.762-7.749-6.99C97.338,156.367,98.306,155.422,100.206,155.422z M112.582,128.308c-7.362-2.57-11.252-10.671-8.671-18.033c1.559-4.458,5.76-7.252,10.239-7.252c1.178,0,2.375,0.195,3.547,0.612 c4.253,1.495,6.497,6.166,5.005,10.413c-0.529,1.507-1.625,2.731-3.072,3.434c-1.452,0.694-3.087,0.792-4.609,0.244 c-2.244-0.78-3.428-3.249-2.649-5.493c0.536-1.535,2.238-2.363,3.754-1.827c0.978,0.356,1.501,1.428,1.166,2.387 c-0.457,1.303,0.231,2.731,1.525,3.194c1.312,0.423,2.725-0.231,3.182-1.528c1.248-3.535-0.636-7.471-4.214-8.735 c-4.159-1.44-8.674,0.746-10.12,4.88c-1.689,4.841,0.865,10.157,5.706,11.843c2.786,0.978,5.773,0.816,8.421-0.457 c1.866-0.904,3.401-2.265,4.491-3.958c0.006,0.228,0.055,0.459,0.137,0.691c0.861,2.47,2.095,4.689,3.623,6.634 c-1.054,0.84-2.213,1.571-3.462,2.171C122.154,129.66,117.191,129.921,112.582,128.308z M131.008,140.687 c0,0.024-0.018,0.049-0.018,0.073c-0.018,0.383-0.012,0.755,0,1.139c-0.131,1.418-0.709,2.722-1.671,3.77 c-1.172,1.278-2.773,2.021-4.519,2.094c-1.26,0.013-2.444-0.383-3.367-1.211c-0.925-0.859-1.467-1.992-1.522-3.258 c-0.037-0.883,0.262-1.693,0.846-2.326c0.588-0.652,1.397-1.023,2.265-1.06c1.376-0.067,2.451-1.221,2.387-2.597 c-0.019-0.511-0.238-0.922-0.524-1.315c2.064,0.03,4.074,0.518,6.117,1.613L131.008,140.687L131.008,140.687z M131.008,132.159 c-0.542-0.198-1.084-0.405-1.625-0.56c0.572-0.305,1.078-0.7,1.625-1.042V132.159z M136.004,130.725 c0.512,0.326,1.048,0.6,1.587,0.88c-0.527,0.143-1.057,0.356-1.587,0.554V130.725z M145.562,146.539 c-0.908,0.858-2.077,1.212-3.386,1.212c-1.724-0.073-3.319-0.816-4.494-2.095c-0.968-1.048-1.553-2.362-1.684-3.763 c0.019-0.391,0.019-0.768,0-1.157c0-0.013,0-0.013,0-0.013v-3.157c2.055-1.09,4.059-1.583,6.123-1.607 c-0.286,0.372-0.506,0.798-0.524,1.31c-0.072,1.376,1.011,2.523,2.381,2.591c0.871,0.036,1.675,0.408,2.26,1.06 c0.584,0.646,0.889,1.455,0.853,2.338C147.041,144.523,146.499,145.68,145.562,146.539z M137,125.357 c1.534-1.97,2.752-4.208,3.604-6.634c0.092-0.231,0.128-0.463,0.128-0.691c1.103,1.687,2.643,3.054,4.506,3.958 c2.655,1.273,5.639,1.428,8.415,0.462c4.829-1.692,7.398-7.008,5.712-11.849c-1.438-4.128-5.979-6.321-10.15-4.88 c-3.562,1.27-5.438,5.2-4.184,8.741c0.463,1.297,1.899,1.957,3.19,1.516c1.291-0.457,1.967-1.896,1.522-3.2 c-0.353-0.947,0.171-2.019,1.133-2.375c1.559-0.524,3.245,0.292,3.775,1.827c0.779,2.244-0.402,4.713-2.655,5.504 c-1.516,0.536-3.142,0.451-4.591-0.256c-1.449-0.685-2.546-1.921-3.081-3.434c-1.486-4.247,0.755-8.917,4.993-10.413 c5.626-1.958,11.818,1.008,13.785,6.634c2.582,7.368-1.303,15.458-8.658,18.039C148.308,130.458,141.768,129.136,137,125.357z M162.251,165.543c-2.423,0.998-4.463,2.338-6.503,4.311c-0.998-4.725-1.656-11.313,0.627-15.15 c1.005-1.692,2.54-2.721,4.622-3.08c0.292,0,0.828,0.182,1.182,0.463c-1.961,1.802-3.849,4.292-5.578,7.757 c-0.621,1.224-0.109,2.728,1.127,3.331c0.359,0.177,0.736,0.268,1.114,0.268c0.913,0,1.796-0.512,2.229-1.395 c1.51-3.051,3.105-5.176,4.786-6.563c0.177-0.037,0.487-0.098,0.943-0.098c1.918,0,2.868,0.926,3.209,3.142 C170.35,160.788,170.009,162.371,162.251,165.543z M176.451,121.104c0.037,0,0.085,0,0.134,0c0.779,0.131,1.462,0.582,1.925,1.209 c0.45,0.651,0.621,1.431,0.48,2.21c-0.249,1.419-1.474,2.448-2.904,2.448l-0.499-0.043c-0.792-0.131-1.479-0.578-1.937-1.221 c-0.438-0.648-0.621-1.428-0.475-2.207C173.419,122.139,174.612,121.104,176.451,121.104z"/> </g> </g> </g>
</svg>