<!DOCTYPE svg PUBLIC "-//W3C//DTD SVG 1.1//EN" "http://www.w3.org/Graphics/SVG/1.1/DTD/svg11.dtd">
<!-- Uploaded to: SVG Repo, www.svgrepo.com, Transformed by: SVG Repo Mixer Tools -->
<svg fill="#ffffff" version="1.1" id="Capa_1" xmlns="http://www.w3.org/2000/svg" xmlns:xlink="http://www.w3.org/1999/xlink" width="800px" height="800px" viewBox="0 0 204.355 204.356" xml:space="preserve" stroke="#ffffff">
<g id="SVGRepo_bgCarrier" stroke-width="0"/>
<g id="SVGRepo_tracerCarrier" stroke-linecap="round" stroke-linejoin="round"/>
<g id="SVGRepo_iconCarrier"> <g> <g> <path d="M191.612,141.444c-0.369,0-0.77,0.011-1.16,0.053c1.013-4.799-0.506-8.627-0.58-8.828 c-0.284-0.706-0.917-1.223-1.666-1.328c-0.76-0.116-1.508,0.168-1.993,0.764c-3.935,4.746-6.413,5.221-8.585,5.638 c-0.865,0.169-1.667,0.338-2.426,0.622c-8.174,3.122-7.404,9.097-6.635,12.752c-6.597,1.613-13.215,1.55-19.433,0.095v-22.708 c0.554,0.053,1.087,0.116,1.651,0.138c0.906,1.688,3.628,6.054,8.11,6.581c0.306,0.037,0.585,0.053,0.886,0.053 c3.238,0,6.46-2.094,9.851-6.534c1.324-1.767,3.792-5.057,7.679-6.655c0.807-0.337,1.339-1.128,1.339-2.004 c-0.011-0.875-0.543-1.666-1.36-1.993c-1.571-0.627-15.651-6.096-22.918-0.938c-2.268,1.604-3.523,4.019-3.897,7.104 c-0.443-0.031-0.896-0.026-1.34-0.079v-13.115c1.208,0.042,2.416-0.031,3.645-0.337c4.171-1.076,7.678-3.761,9.846-7.547 c2.146-3.775,2.747-8.216,1.65-12.477c-1.329-5.189-4.562-9.563-9.097-12.324c-1.914-1.16-3.939-1.894-6.044-2.352V56.056h-18.003 c-0.332-2.721-1.213-5.374-2.689-7.802c-2.764-4.533-7.135-7.76-12.324-9.1c-4.261-1.092-8.69-0.514-12.482,1.65 c-3.786,2.173-6.476,5.677-7.543,9.856c-0.458,1.788-0.525,3.617-0.227,5.395H82.906c-0.201-1.015-0.288-2.035-0.34-3.056 c3.143-0.33,5.513-1.669,7.122-3.937c5.147-7.27-0.313-21.337-0.952-22.913c-0.327-0.805-1.115-1.351-1.991-1.355c0,0,0,0-0.011,0 c-0.865,0-1.664,0.541-1.993,1.334c-1.614,3.876-4.904,6.35-7.069,7.987c-4.438,3.385-6.491,6.884-6.08,10.433 c0.535,4.525,4.973,7.262,6.637,8.143c0.056,1.134,0.056,2.262,0.232,3.38H56.067c-1.922-6.863-2.088-14.104-0.361-21.193 c1.139,0.242,2.365,0.475,3.7,0.475c4.2,0,7.261-2.381,9.054-7.085c0.309-0.772,0.464-1.571,0.627-2.437 c0.403-2.165,0.892-4.633,5.643-8.574c0.572-0.485,0.875-1.237,0.768-1.994c-0.113-0.749-0.623-1.392-1.329-1.68 c-0.232-0.095-2.381-0.928-5.481-0.928c-1.14,0-2.257,0.113-3.341,0.335c0.68-7.143-4.899-11.43-8.485-12.835 c-0.743-0.303-1.582-0.15-2.181,0.356c-0.606,0.53-0.88,1.329-0.709,2.123c0.514,2.349-0.192,3.515-1.371,5.471 c-0.433,0.717-0.917,1.516-1.35,2.457c-4.071-2.826-8.266-2.932-8.888-2.932c-0.772,0.016-1.463,0.419-1.841,1.084 c-0.372,0.653-0.385,1.463-0.01,2.133c3.014,5.379,2.547,7.852,2.138,10.027c-0.158,0.865-0.303,1.669-0.309,2.489 c-0.021,8.435,5.421,10.072,9.115,10.716c-1.727,7.332-1.685,14.836,0.113,21.972H2.984c-1.191,0-2.154,0.978-2.154,2.154 c0,1.194,0.979,2.154,2.154,2.154h49.908c0.988,2.74,2.22,5.411,3.726,7.981c6.096,10.336,15.757,17.729,27.253,21.006h-47.59 c-1.192,0-2.154,0.979-2.154,2.154c0,1.194,0.978,2.154,2.154,2.154h75.244v75.252c0,1.197,0.976,2.151,2.146,2.151 c1.182,0,2.152-0.97,2.152-2.151v-40.906c5.368,12.931,16.168,22.429,28.972,26.468v47.735c0,1.197,0.981,2.151,2.162,2.151 c1.192,0,2.157-0.971,2.157-2.151v-46.606c3.111,0.664,6.307,1.033,9.561,1.033c3.522,0,7.093-0.459,10.674-1.292 c0.643,3.687,2.277,9.118,10.705,9.118c0.822-0.006,1.635-0.143,2.499-0.307c1.772-0.337,3.228-1.666,10.03,2.142 c0.327,0.179,0.686,0.274,1.05,0.274c0.363,0,0.743-0.101,1.07-0.291c0.664-0.379,1.065-1.08,1.075-1.846 c0-0.221,0.032-4.613-2.932-8.891c0.928-0.438,1.729-0.923,2.457-1.355c1.909-1.154,3.254-1.866,5.475-1.35 c0.147,0.031,0.321,0.058,0.479,0.058c0.031,0,0.074,0,0.11,0c1.192,0,2.157-0.976,2.157-2.151c0-0.559-0.211-1.049-0.554-1.445 C202.044,147.313,198.6,141.444,191.612,141.444z M156.871,120.651c3.275-2.331,9.745-1.309,14.46-0.016 c-2.479,1.945-4.188,4.229-5.432,5.874c-1.656,2.162-4.135,4.625-6.486,4.414c-1.424-0.163-2.637-1.292-3.564-2.452 c1.117-0.147,2.235-0.354,3.354-0.639c1.16-0.306,1.856-1.471,1.561-2.62c-0.306-1.16-1.455-1.835-2.637-1.562 c-1.075,0.285-2.172,0.354-3.27,0.485C155.142,122.596,155.785,121.42,156.871,120.651z M149.135,80.459 c1.309,0.366,2.59,0.864,3.797,1.592c3.565,2.165,6.107,5.622,7.151,9.727c0.807,3.169,0.385,6.444-1.219,9.244 c-1.592,2.779-4.145,4.735-7.182,5.516c-0.854,0.222-1.704,0.264-2.574,0.222V80.464h0.026V80.459z M46.667,23.372 c0-0.569,0.113-1.123,0.232-1.725c0.372-2.041,0.857-4.669-0.746-8.931c1.442,0.557,3.061,1.464,4.514,3.035 c0.556,0.588,1.387,0.82,2.175,0.609c0.789-0.222,1.379-0.87,1.529-1.68c0.334-1.762,1.097-3.035,1.912-4.385 c0.762-1.242,1.571-2.598,1.938-4.314c1.993,1.727,3.92,4.778,2.064,9.532c-0.335,0.825-0.113,1.782,0.562,2.376 c0.651,0.593,1.625,0.738,2.418,0.334c1.685-0.86,3.467-1.247,5.482-1.282c-3.035,3.396-3.523,6.012-3.926,8.042 c-0.113,0.594-0.211,1.16-0.422,1.69c-1.458,3.794-3.354,4.313-5.02,4.313c-1.142,0-2.344-0.264-3.502-0.52l-2.645-0.506 C49.156,29.36,46.648,28.695,46.667,23.372z M100.271,51.727c0.788-3.038,2.742-5.596,5.511-7.183 c2.816-1.605,6.086-2.03,9.25-1.216c4.113,1.042,7.541,3.597,9.724,7.138c1.055,1.74,1.74,3.642,2.057,5.563h-26.504 C99.952,54.625,99.905,53.167,100.271,51.727z M97.416,60.37c0.079,0.143,0.124,0.304,0.208,0.438 c1.875,3.075,4.839,5.266,8.369,6.172c1.139,0.288,2.331-0.388,2.621-1.55c0.301-1.16-0.396-2.331-1.551-2.624 c-1.646-0.422-3.085-1.263-4.258-2.42h23.97c-0.058,0.396-0.1,0.796-0.179,1.2c0,0.021-0.011,0.021-0.021,0.045 c-0.189,0.738-0.433,1.45-0.675,2.159c-1.551,4.314-4.482,7.966-8.591,10.297c-4.635,2.657-10.077,3.375-15.354,2.014 c-6.708-1.711-12.36-5.885-15.902-11.712c-0.789-1.273-1.405-2.623-1.93-4.002L97.416,60.37L97.416,60.37z M78.445,47.671 c-1.205-0.936-2.386-2.193-2.571-3.667c-0.269-2.371,2.252-4.838,4.796-6.76c1.29-0.994,3.531-2.669,5.508-5.158 c1.294,4.714,2.32,11.167-0.016,14.467c-0.788,1.079-1.94,1.732-3.488,2.025c0.119-1.097,0.214-2.194,0.506-3.28 c0.298-1.155-0.398-2.331-1.561-2.629c-1.17-0.276-2.339,0.412-2.623,1.562C78.671,45.37,78.601,46.514,78.445,47.671z M86.091,85.508c-10.887-2.808-20.029-9.677-25.753-19.364c-1.102-1.869-1.999-3.802-2.803-5.774h22.032 c0.707,2.152,1.582,4.256,2.803,6.249c4.142,6.798,10.718,11.642,18.528,13.646c2.099,0.546,4.219,0.799,6.328,0.799 c2.32,0,4.619-0.346,6.855-1.005C106.31,85.783,96.14,88.106,86.091,85.508z M144.816,149.965 c-12.825-4.503-23.267-15.135-26.884-29.246c-2.215-8.606-0.96-17.55,3.575-25.199c0.554-0.931,1.244-1.711,1.888-2.587 c-1.16,4.103-1.371,8.543-0.216,12.983c2.853,11.116,11.448,19.148,21.663,21.801v22.243h-0.026V149.965z M144.816,105.453 c-1.993-1.239-3.544-3.249-4.166-5.728c-0.316-1.16-1.472-1.829-2.632-1.555c-1.154,0.311-1.851,1.477-1.55,2.631 c1.16,4.493,4.382,7.884,8.374,9.413v12.983c-8.242-2.558-15.124-9.239-17.471-18.378c-2.399-9.339,1.945-18.784,9.914-22.945 c1.481-0.627,2.984-1.255,4.577-1.682c0.021,0,0.031-0.021,0.053-0.021c0.991-0.211,1.951-0.334,2.932-0.334v25.6h-0.021v0.016 H144.816z M144.816,75.539c-1.519,0.026-3.038,0.168-4.557,0.556c-0.559,0.14-1.033,0.406-1.571,0.583 c-8.796,2.808-16.179,8.625-20.914,16.632c-0.729,1.231-1.351,2.489-1.931,3.765v-7.744H104.58 c10.769-3.063,19.912-10.821,24.416-21.568c0.732-1.463,1.308-2.99,1.729-4.611c0.232-0.928,0.332-1.87,0.411-2.803h13.68V75.539z M193.11,150.514c-1.34,0.807-2.605,1.571-4.382,1.914c-0.797,0.137-1.461,0.738-1.683,1.514c-0.222,0.78,0.026,1.64,0.611,2.178 c1.572,1.45,2.5,3.074,3.038,4.509c-1.993-0.749-3.818-1.103-5.59-1.103c-1.266,0-2.353,0.186-3.322,0.364 c-0.602,0.11-1.16,0.222-1.782,0.222c-5.284,0-5.938-2.489-6.571-6.561l-0.506-2.668c-0.886-4.039-1.192-6.618,3.808-8.521 c0.527-0.19,1.075-0.301,1.688-0.401c2.035-0.39,4.65-0.892,8.047-3.934c0,1.582-0.285,3.496-1.287,5.489 c-0.411,0.791-0.284,1.756,0.333,2.421c0.596,0.675,1.545,0.886,2.378,0.559c4.324-1.688,7.71,0.016,9.492,2.057 C195.689,148.958,194.339,149.77,193.11,150.514z"/> </g> </g> </g>
</svg>