<!DOCTYPE svg PUBLIC "-//W3C//DTD SVG 1.1//EN" "http://www.w3.org/Graphics/SVG/1.1/DTD/svg11.dtd">
<!-- Uploaded to: SVG Repo, www.svgrepo.com, Transformed by: SVG Repo Mixer Tools -->
<svg fill="#ffffff" height="800px" width="800px" version="1.1" id="Layer_1" xmlns="http://www.w3.org/2000/svg" xmlns:xlink="http://www.w3.org/1999/xlink" viewBox="0 0 512 512" xml:space="preserve" stroke="#ffffff">
<g id="SVGRepo_bgCarrier" stroke-width="0"/>
<g id="SVGRepo_tracerCarrier" stroke-linecap="round" stroke-linejoin="round"/>
<g id="SVGRepo_iconCarrier"> <g> <g> <path d="M497.868,148.613c-0.334-0.246-0.677-0.481-1.032-0.707c-1.262-0.828-2.582-1.577-3.955-2.233L286.811,33.161 c-0.723-0.394-1.463-0.718-2.211-1.008c-8.203-5.654-18.134-8.973-28.828-8.973c-10.82,0-20.853,3.401-29.112,9.175L19.09,145.687 C7.812,151.078,0,162.598,0,175.91v279.432c0,18.46,15.018,33.478,33.478,33.478h445.044c18.46,0,33.478-15.018,33.478-33.478 V175.91C512,164.654,506.41,154.686,497.868,148.613z M255.771,60.377c7.576,0,13.738,6.162,13.738,13.737 c0,7.575-6.164,13.738-13.738,13.738c-7.575,0-13.738-6.164-13.738-13.738S248.195,60.377,255.771,60.377z M206.225,85.891 c5.33,22.425,25.514,39.16,49.546,39.16c24.109,0,44.346-16.843,49.597-39.378l103.953,56.758h-306.65L206.225,85.891z M474.802,451.623H37.198V257.432h437.604V451.623z M474.802,220.234H37.198V179.63h437.604V220.234z"/> </g> </g> <g> <g> <path d="M337.785,293.026c-21.178-21.181-55.638-21.178-76.815-0.001l-4.458,4.458l-4.459-4.458 c-21.023-21.023-55.132-21.179-76.349-0.462c-9.535,8.525-15.127,22.265-15.369,37.844c-0.248,16.006,5.268,30.439,15.152,39.689 l67.866,67.865c0.003,0.003,0.004,0.004,0.006,0.006c3.632,3.632,8.392,5.448,13.151,5.448c4.759,0,9.52-1.817,13.151-5.448 l68.123-68.123C358.964,348.665,358.964,314.204,337.785,293.026z M311.483,343.539l-54.972,54.971l-54.972-54.971l-0.605-0.579 c-1.748-1.597-3.479-6.2-3.406-11.906c0.081-6.318,2.208-10.102,2.973-10.768l1.038-0.961c6.676-6.675,17.536-6.675,24.212,0 l17.603,17.603c0.002,0.003,0.004,0.004,0.006,0.006c2.42,2.42,5.348,4.016,8.437,4.823c1.545,0.403,3.127,0.624,4.714,0.624 c3.272,0,6.536-0.879,9.442-2.596c1.32-0.78,2.575-1.716,3.711-2.851c0.004-0.004,0.007-0.009,0.011-0.012l17.597-17.597 c6.675-6.672,17.538-6.675,24.211,0C318.159,326.002,318.159,336.863,311.483,343.539z"/> </g> </g> </g>
</svg>