<?xml version="1.0" encoding="iso-8859-1"?>
<!-- Uploaded to: SVG Repo, www.svgrepo.com, Generator: SVG Repo Mixer Tools -->
<svg fill="#000000" height="800px" width="800px" version="1.1" id="Layer_1" xmlns="http://www.w3.org/2000/svg" xmlns:xlink="http://www.w3.org/1999/xlink" 
	 viewBox="0 0 502.4 502.4" xml:space="preserve">
<g>
	<g>
		<path d="M481.067,57.6H21.333C9.6,57.6,0,67.2,0,78.933v344.533C0,435.2,9.6,444.8,21.333,444.8H480
			c11.733,0,21.333-9.6,22.4-21.333V78.933C502.4,67.2,492.8,57.6,481.067,57.6z M421.333,100.267L350.933,160
			c-10.667-12.8-24.533-21.333-36.267-24.533c-20.267-7.467-42.667-2.133-64,12.8c-21.333-14.933-43.733-20.267-64-12.8
			c-11.733,4.267-25.6,12.8-37.333,25.6l-71.467-60.8H421.333z M312.533,251.734c-18.133,22.4-45.867,55.467-60.8,70.4
			c-14.933-14.933-42.667-46.933-60.8-70.4c-10.667-12.8-21.333-32-16-50.133c4.267-13.867,16-23.467,25.6-26.667
			c9.6-3.2,22.4,2.133,35.2,14.933c5.333,5.333,12.8,7.467,19.2,5.333c4.267,0,8.533-2.133,12.8-5.333
			c12.8-11.733,26.667-18.133,35.2-14.933c9.6,3.2,21.333,12.8,25.6,26.667C333.867,219.734,323.2,238.933,312.533,251.734z
			 M40.533,122.667H41.6l90.667,77.867c-2.133,17.067,0,39.467,17.067,65.067l-108.8,108.8V122.667z M72.533,402.134L176,299.734
			c53.333,66.133,66.133,69.333,72.533,69.333c1.067,0,1.067,0,1.067,0h1.067h1.067h1.067c6.4,0,19.2-3.2,71.467-68.267
			L425.6,402.134H72.533z M459.733,375.467L352,267.734c18.133-26.667,20.267-50.133,18.133-67.2l89.6-76.8V375.467z"/>
	</g>
</g>
</svg>