<?xml version="1.0" encoding="iso-8859-1"?>
<!-- Uploaded to: SVG Repo, www.svgrepo.com, Generator: SVG Repo Mixer Tools -->
<svg fill="#000000" height="800px" width="800px" version="1.1" id="Layer_1" xmlns="http://www.w3.org/2000/svg" xmlns:xlink="http://www.w3.org/1999/xlink" 
	 viewBox="0 0 501.499 501.499" xml:space="preserve">
<g>
	<g>
		<path d="M491.283,121.767c-10.667-22.4-34.133-38.4-65.067-42.667c-4.267-33.067-19.2-57.6-43.733-69.333
			c-28.8-13.867-64-12.8-90.667,2.133c-21.333,11.733-48,37.333-54.4,94.933c-1.067,9.6-2.133,21.333-3.2,33.067l-16-18.133
			c-11.733-12.8-28.8-21.333-46.933-22.4c-2.133-11.733-4.267-34.133,11.733-45.867c8.533-6.4,10.667-19.2,3.2-28.8
			c-7.467-8.533-20.267-10.667-30.933-2.133c-34.133,26.667-29.867,69.333-25.6,88.533c-3.2,2.133-6.4,5.333-9.6,8.533
			c-3.2,3.2-6.4,7.467-8.533,11.733c-20.267-4.267-61.867-7.467-88.533,25.6c-7.467,8.533-6.4,21.333,3.2,28.8
			c4.267,3.2,8.533,4.267,12.8,4.267c5.333,0,11.733-3.2,16-7.467c11.733-14.933,34.133-12.8,45.867-10.667
			c1.067,17.067,8.533,33.067,22.4,45.867l16,13.867c-11.733,1.067-22.4,2.133-32,3.2c-56.533,6.4-83.2,33.067-94.933,54.4
			c-14.933,26.667-16,62.933-2.133,90.667c11.733,23.467,36.267,38.4,67.2,43.733c4.267,33.067,19.2,56.533,43.733,68.267
			c13.867,6.4,28.8,9.6,43.733,9.6c16,0,33.067-4.267,45.867-10.667c21.333-11.733,48-37.333,54.4-94.933
			c1.067-13.867,3.2-30.933,4.267-49.067l41.6,37.333c8.533,8.533,21.333,12.8,34.133,12.8c14.933,0,27.733-5.333,37.333-16
			c19.2-19.2,20.267-51.2,2.133-71.467l-34.133-38.4c16-1.067,32-3.2,43.733-4.267c56.533-6.4,83.2-33.067,94.933-54.4
			C504.083,185.767,505.149,149.5,491.283,121.767z M223.549,390.566c-3.2,30.933-14.933,52.267-33.067,62.933
			c-18.133,9.6-39.467,7.467-52.267,1.067c-11.733-6.4-20.267-25.6-20.267-50.133c0-11.733-8.533-21.333-20.267-21.333
			c-25.6,0-43.733-7.467-50.133-20.267c-6.4-13.867-8.533-35.2,1.067-52.267c10.667-18.133,32-29.867,64-34.133
			c19.2-2.133,45.867-4.267,69.333-6.4l48,42.667C228.883,339.367,225.683,369.233,223.549,390.566z M352.616,338.3
			c4.266,3.2,4.266,9.6,0,13.867c-2.133,2.133-7.467,5.333-13.867,1.067l-187.733-166.4c-5.333-4.267-8.533-10.667-8.533-18.133
			s2.133-13.867,7.467-19.2c5.333-4.267,11.733-7.467,18.133-7.467c7.467,0,13.867,2.133,19.2,8.533L352.616,338.3z M452.883,191.1
			c-9.6,18.133-32,29.867-62.933,33.067c-20.267,2.133-49.067,4.267-75.733,6.4l-41.6-46.933v-1.067
			c2.133-25.6,4.267-52.267,6.4-71.467c3.2-30.933,14.933-52.267,33.067-62.933c18.133-9.6,39.467-7.467,52.267-1.067
			c10.667,5.333,18.133,21.333,20.267,41.6c-1.067,2.133-2.133,5.333-2.133,8.533c0,11.733,8.533,21.333,20.267,21.333
			c25.6,0,43.733,7.467,50.133,20.267C460.349,152.7,462.483,174.033,452.883,191.1z"/>
	</g>
</g>
</svg>