<?xml version="1.0" encoding="iso-8859-1"?>
<!-- Uploaded to: SVG Repo, www.svgrepo.com, Generator: SVG Repo Mixer Tools -->
<svg fill="#000000" height="800px" width="800px" version="1.1" id="Layer_1" xmlns="http://www.w3.org/2000/svg" xmlns:xlink="http://www.w3.org/1999/xlink" 
	 viewBox="0 0 501.333 501.333" xml:space="preserve">
<g>
	<g>
		<path d="M340.266,115.2c-11.733-11.733-27.733-19.2-44.8-19.2c-17.067,0-33.067,7.467-44.8,19.2
			c-12.8-11.733-27.733-19.2-44.8-19.2c-37.333,0-66.133,34.133-68.267,78.933c-2.133,50.133,75.733,121.6,99.2,141.867
			c4.267,3.2,8.533,5.333,13.867,5.333c4.268,0,9.601-2.133,13.867-5.333c9.6-7.467,98.133-80,99.2-140.8
			C363.733,152.533,355.2,130.133,340.266,115.2z M250.666,272c-37.333-35.2-72.533-77.867-71.466-96
			c1.067-21.333,12.8-38.4,26.667-38.4c10.667,0,20.267,9.6,24.533,23.467C233.6,169.6,241.066,176,250.666,176
			c9.6,0,18.133-6.4,20.267-14.933c4.267-14.933,13.867-24.533,24.533-24.533c6.4,0,11.733,4.267,14.933,7.467
			c6.4,7.467,10.667,19.2,10.667,30.933C321.066,201.6,281.599,244.267,250.666,272z"/>
	</g>
</g>
<g>
	<g>
		<path d="M304,458.667c56.533-57.6,154.667-169.6,154.667-250.667c0-115.2-93.867-208-208-208s-208,92.8-208,208
			c0,82.133,98.133,193.067,155.733,250.667c-11.733,0-21.333,9.6-21.333,21.333s9.6,21.333,21.333,21.333h104.533
			c11.733,0,21.333-9.6,21.333-21.333S314.667,459.733,304,458.667z M250.667,451.2C194.133,396.8,85.333,277.333,85.333,206.933
			c0-90.667,73.6-165.333,165.333-165.333S416,116.267,416,206.933C416,277.333,307.2,396.8,250.667,451.2z"/>
	</g>
</g>
</svg>