<?xml version="1.0" encoding="iso-8859-1"?>
<!-- Uploaded to: SVG Repo, www.svgrepo.com, Generator: SVG Repo Mixer Tools -->
<svg fill="#000000" height="800px" width="800px" version="1.1" id="Layer_1" xmlns="http://www.w3.org/2000/svg" xmlns:xlink="http://www.w3.org/1999/xlink" 
	 viewBox="0 0 502.4 502.4" xml:space="preserve">
<g>
	<g>
		<path d="M414.4,169.6c-11.733-41.6-46.933-67.2-72.533-75.733c-27.733-9.6-59.733-2.133-90.667,21.333
			c-30.933-23.467-62.933-30.933-90.667-21.333C134.933,102.4,99.733,128,88,169.6c-7.467,26.667-8.533,70.4,34.133,123.733
			c18.133,22.4,44.8,55.467,68.267,81.067c44.8,51.2,52.267,54.4,60.8,54.4c8.533,0,16-3.2,60.8-54.4
			c23.467-25.6,50.133-58.667,68.267-81.067C422.933,240,421.867,196.267,414.4,169.6z M347.2,267.733
			c-29.867,36.267-73.6,87.467-96,110.933c-22.4-23.467-66.133-73.6-96-110.933c-24.533-30.933-34.133-60.8-26.667-86.4
			c6.4-24.533,27.733-41.6,45.867-48c17.067-6.4,41.6,3.2,64,25.6c3.2,3.2,8.533,5.333,12.8,6.4c4.267,0,9.6-2.133,12.8-6.4
			c22.4-22.4,46.933-32,64-25.6c18.133,6.4,39.467,23.467,45.867,48C381.333,206.933,371.733,236.8,347.2,267.733z"/>
	</g>
</g>
<g>
	<g>
		<path d="M480.533,355.2c-11.733,0-21.333,9.6-21.333,21.333v83.2H376c-11.733,0-21.333,9.6-21.333,21.333S364.267,502.4,376,502.4
			h104.533c11.733,0,21.333-9.6,21.333-21.333V376.534C501.867,364.8,492.267,355.2,480.533,355.2z"/>
	</g>
</g>
<g>
	<g>
		<path d="M126.4,459.733H43.2v-83.2c0-11.733-9.6-21.333-21.333-21.333s-21.333,9.6-21.333,21.333v104.533
			c0,11.733,9.6,21.333,21.333,21.333H126.4c10.667,0,21.333-9.6,21.333-21.333S138.133,459.733,126.4,459.733z"/>
	</g>
</g>
<g>
	<g>
		<path d="M126.4,1.067H21.867c-11.733,0-21.333,9.6-21.333,21.333v103.467c0,11.733,9.6,21.333,21.333,21.333
			c10.667,0,20.267-9.6,20.267-20.267v-83.2H126.4c11.733,0,21.333-9.6,21.333-21.333S138.133,1.067,126.4,1.067z"/>
	</g>
</g>
<g>
	<g>
		<path d="M480.533,0H376c-11.733,0-21.333,9.6-21.333,21.333s9.6,21.333,21.333,21.333h83.2v83.2
			c0,11.733,9.6,21.333,21.333,21.333s21.333-9.6,21.333-21.333V21.333C501.867,9.6,492.267,0,480.533,0z"/>
	</g>
</g>
</svg>