<!DOCTYPE svg PUBLIC "-//W3C//DTD SVG 1.1//EN" "http://www.w3.org/Graphics/SVG/1.1/DTD/svg11.dtd">
<!-- Uploaded to: SVG Repo, www.svgrepo.com, Transformed by: SVG Repo Mixer Tools -->
<svg fill="#ffffff" height="800px" width="800px" version="1.1" id="Layer_1" xmlns="http://www.w3.org/2000/svg" xmlns:xlink="http://www.w3.org/1999/xlink" viewBox="0 0 511.999 511.999" xml:space="preserve" stroke="#ffffff">
<g id="SVGRepo_bgCarrier" stroke-width="0"/>
<g id="SVGRepo_tracerCarrier" stroke-linecap="round" stroke-linejoin="round"/>
<g id="SVGRepo_iconCarrier"> <g> <g> <path d="M511.891,212.897c0.012,0.124,0.048,0.482,0-0.003c-0.005-0.052-0.004-0.04,0-0.002 c-0.516-5.069-3.049-9.902-7.141-13.203l-83.865-67.66V68.232c0-7.985-6.495-14.48-14.48-14.48h-82.547L268.232,8.875 c-3.454-2.785-7.798-4.32-12.232-4.32c-4.439,0-8.784,1.535-12.234,4.32L188.14,53.752h-82.546c-7.985,0-14.48,6.495-14.48,14.48 v63.797L7.251,199.689C2.645,203.404,0,209.097,0,214.854v273.107c0,10.743,8.74,19.483,19.483,19.483h473.034 c10.743,0,19.483-8.74,19.483-19.483V214.854C511.964,214.202,511.927,213.549,511.891,212.897z M420.884,219.975h0.001h5.89 c4.799,0,8.688-3.89,8.688-8.688s-3.889-8.688-8.688-8.688h-5.89v-48.246l59.801,48.246H462.18c-4.799,0-8.688,3.89-8.688,8.688 s3.889,8.688,8.688,8.688h18.505l-14.067,11.349c-0.002,0.001-0.003,0.003-0.006,0.005l-45.728,36.892V219.975z M254.678,22.396 c0.477-0.385,0.982-0.466,1.322-0.466s0.844,0.081,1.324,0.468l12.845,10.363l26.018,20.991H244.15h-28.337L254.678,22.396z M91.116,219.976v48.246l-40.255-32.476l-5.471-4.415c-0.003-0.002-0.005-0.005-0.008-0.007l-14.067-11.349h19.546H91.116z M91.115,154.355v22.862v25.385H59.651H31.314L91.115,154.355z M494.624,487.96c0,1.162-0.945,2.107-2.107,2.107H19.483 c-1.162,0-2.107-0.945-2.107-2.107V231.055L31.24,242.24v225.276c0,4.798,3.889,8.688,8.688,8.688h98.404 c4.799,0,8.688-3.89,8.688-8.688s-3.889-8.688-8.688-8.688H48.616v-202.57l106.127,85.621c3.732,3.013,9.203,2.427,12.216-1.307 c3.013-3.735,2.427-9.204-1.307-12.216l-34.61-27.921l-22.551-18.193V71.128h22.551h272.466V282.24L257.326,400.176 c-0.482,0.388-0.987,0.469-1.326,0.469s-0.844-0.081-1.324-0.468L194.81,351.88c-3.736-3.014-9.203-2.428-12.216,1.306 c0,0,0,0-0.001,0.001c-3.013,3.735-2.427,9.203,1.307,12.216l59.865,48.297c3.451,2.786,7.796,4.321,12.234,4.321 c4.433,0,8.777-1.534,12.234-4.32l195.152-157.442v202.57H175.818c-4.799,0-8.688,3.89-8.688,8.688s3.889,8.688,8.688,8.688 h296.253c4.798,0,8.688-3.89,8.688-8.688V242.24l13.866-11.185V487.96z"/> </g> </g> <g> <g> <path d="M408.674,361.856c-22.877,0-41.488,18.612-41.488,41.489s18.612,41.489,41.488,41.489 c22.878,0,41.489-18.612,41.489-41.489S431.552,361.856,408.674,361.856z M408.674,427.459c-13.297,0-24.113-10.817-24.113-24.114 c-0.001-13.296,10.816-24.114,24.113-24.114c13.296,0,24.114,10.817,24.114,24.114 C432.788,416.641,421.97,427.459,408.674,427.459z"/> </g> </g> <g> <g> <path d="M155.152,388.931H69.726c-4.799,0-8.688,3.89-8.688,8.688s3.889,8.688,8.688,8.688h85.426c4.799,0,8.688-3.89,8.688-8.688 S159.951,388.931,155.152,388.931z"/> </g> </g> <g> <g> <path d="M137.273,421.316H69.726c-4.799,0-8.688,3.89-8.688,8.688s3.889,8.688,8.688,8.688h67.546c4.799,0,8.688-3.89,8.688-8.688 S142.071,421.316,137.273,421.316z"/> </g> </g> <g> <g> <path d="M331.615,179.754c-10.549-10.549-24.576-16.36-39.495-16.36c-13.378,0-26.039,4.672-36.123,13.246 c-10.08-8.573-22.741-13.246-36.12-13.246c-14.92,0-28.945,5.81-39.495,16.36c-10.55,10.548-16.361,24.575-16.361,39.496 c0,14.922,5.812,28.948,16.357,39.491l63.018,63.071c3.366,3.369,7.842,5.223,12.603,5.223c4.759,0,9.235-1.856,12.603-5.224 l63.013-63.068c10.549-10.552,16.36-24.577,16.36-39.494C347.976,204.334,342.165,190.308,331.615,179.754z M319.327,246.463 l-47.903,47.944l-15.111,15.124c-0.171,0.169-0.461,0.166-0.627,0.001l-63.017-63.073c-7.268-7.265-11.27-16.927-11.27-27.207 c0-10.281,4.002-19.943,11.271-27.209c5.761-5.762,13.029-9.462,20.914-10.752c2.062-0.337,4.163-0.519,6.293-0.519 c10.278,0,19.941,4.003,27.209,11.271l2.768,2.769c1.63,1.63,3.839,2.545,6.144,2.545c0,0,0.001,0,0.002,0 c2.304,0,4.514-0.917,6.144-2.547l2.763-2.765c7.27-7.269,16.934-11.271,27.212-11.271c10.277,0,19.94,4.003,27.208,11.271 c7.268,7.27,11.271,16.934,11.271,27.209C330.6,229.528,326.597,239.19,319.327,246.463z"/> </g> </g> </g>
</svg>