<svg xmlns="http://www.w3.org/2000/svg"  viewBox="0 0 48 48" width="96px" height="96px"><path fill="#8ce7f2" d="M40.787,44H15.213C13.438,44,12,42.562,12,40.787V15.213C12,13.438,13.438,12,15.213,12h25.574	C42.562,12,44,13.438,44,15.213v25.574C44,42.562,42.562,44,40.787,44z"/><path fill="none" stroke="#18193f" stroke-linecap="round" stroke-linejoin="round" stroke-miterlimit="10" stroke-width="3" d="M40.5,31.7v4.8c0,2.2-1.8,4-4,4h-25c-2.2,0-4-1.8-4-4V24.9"/><path fill="none" stroke="#18193f" stroke-linecap="round" stroke-linejoin="round" stroke-miterlimit="10" stroke-width="3" d="M7.5,19.2v-7.7c0-2.2,1.8-4,4-4h25c2.2,0,4,1.8,4,4v14"/><circle cx="20.288" cy="31.433" r="2.475" fill="#18193f"/><path fill="#18193f" d="M29.29,29.963c0.307,0.411,0.485,0.921,0.485,1.47c0,1.366-1.109,2.475-2.475,2.475	c-1.366,0-2.475-1.109-2.475-2.475c0-0.01,0-0.02,0-0.03"/><circle cx="23.114" cy="20.892" r="1.009" fill="#18193f"/><circle cx="28.766" cy="20.892" r="1.009" fill="#18193f"/><path fill="none" stroke="#18193f" stroke-linecap="round" stroke-linejoin="round" stroke-width="1.7" d="M22.982,25.026	c0,0,0.808,1.817,3.028,1.817s3.028-1.817,3.028-1.817"/><path fill="none" stroke="#18193f" stroke-linecap="round" stroke-linejoin="round" stroke-width="2" d="M18.703,31.098	c-1.95-0.702-3.315-1.954-4.198-4.053c2.019,0,2.019-2.422,2.019-3.633c-0.001-4.684,3.706-8.479,8.276-8.479	s8.276,3.795,8.276,8.479c0,3.093-1.615,5.797-4.029,7.279c-1.078,0.662-2.317,1.078-3.642,1.175	c-0.198,0.017-0.399,0.024-0.606,0.024c-0.787,0-1.53-0.02-2.224-0.068"/></svg>