<?xml version="1.0" encoding="iso-8859-1"?>
<!-- Uploaded to: SVG Repo, www.svgrepo.com, Generator: SVG Repo Mixer Tools -->
<svg height="800px" width="800px" version="1.1" id="Layer_1" xmlns="http://www.w3.org/2000/svg" xmlns:xlink="http://www.w3.org/1999/xlink" 
	 viewBox="0 0 512 512" xml:space="preserve">
<polygon style="fill:#85C9FF;" points="454.917,101.606 442.149,115.67 383.07,180.715 328.589,180.715 269.542,116.454 
	268.821,115.67 256.104,101.825 267.452,85.117 267.995,84.323 292.655,48.044 417.144,48.044 442.734,84.323 "/>
<polygon style="fill:#00A6FF;" points="454.917,101.606 442.149,115.67 383.07,180.715 354.701,180.715 354.701,48.044 
	417.144,48.044 442.734,84.323 "/>
<polygon style="fill:#D7E9FF;" points="454.917,101.606 442.149,115.67 269.542,116.454 268.821,115.67 256.104,101.825 
	267.452,85.117 442.734,84.323 "/>
<g>
	<path style="fill:#DFCCBE;" d="M157.299,149.368C70.562,149.368,0,219.93,0,306.657c0,86.737,70.562,157.299,157.299,157.299
		c86.727,0,157.289-70.562,157.289-157.299C314.587,219.93,244.025,149.368,157.299,149.368z M157.299,432.609
		c-69.454,0-125.952-56.498-125.952-125.952c0-69.444,56.498-125.942,125.952-125.942c69.444,0,125.942,56.498,125.942,125.942
		C283.24,376.111,226.743,432.609,157.299,432.609z"/>
	<path style="fill:#DFCCBE;" d="M354.705,463.956c-86.733,0-157.295-70.562-157.295-157.295s70.562-157.295,157.295-157.295
		S512,219.928,512,306.661S441.438,463.956,354.705,463.956z M354.705,180.714c-69.447,0-125.948,56.5-125.948,125.948
		s56.501,125.947,125.948,125.947s125.948-56.5,125.948-125.948S424.153,180.714,354.705,180.714z"/>
</g>
<g>
	<path style="fill:#BD9B7B;" d="M314.587,306.657c0,86.737-70.562,157.299-157.288,157.299v-31.347
		c69.444,0,125.942-56.498,125.942-125.952c0-69.444-56.498-125.942-125.942-125.942v-31.347
		C244.025,149.368,314.587,219.93,314.587,306.657z"/>
	<path style="fill:#BD9B7B;" d="M512,306.657c0,86.737-70.562,157.299-157.288,157.299v-31.347
		c69.444,0,125.942-56.498,125.942-125.952c0-69.444-56.498-125.942-125.942-125.942v-31.347
		C441.438,149.368,512,219.93,512,306.657z"/>
</g>
<polygon style="fill:#BBDDFF;" points="454.917,101.606 442.149,115.67 354.701,115.67 354.701,84.323 442.734,84.323 "/>
</svg>