<?xml version="1.0" encoding="UTF-8"?>
<svg width="600" height="600" viewBox="0 0 600 600" xmlns="http://www.w3.org/2000/svg">
  <defs>
    <pattern id="arabesque-pattern" x="0" y="0" width="200" height="200" patternUnits="userSpaceOnUse">
      <!-- Central flower motif -->
      <path fill="none" stroke="#f3a83c" stroke-width="1.2" opacity="0.6" 
            d="M100,100 C120,90 130,70 120,50 C110,70 90,80 70,80 C90,90 100,110 90,130 C100,110 120,100 140,110 C120,100 110,80 120,60 C130,80 150,90 170,80 C150,70 140,50 150,30 C140,50 120,60 100,60" />
      
      <!-- Connecting flourishes -->
      <path fill="none" stroke="#f3a83c" stroke-width="0.8" opacity="0.5" 
            d="M0,0 C20,20 40,20 60,0 C40,20 40,40 60,60 M200,0 C180,20 160,20 140,0 C160,20 160,40 140,60 M0,200 C20,180 40,180 60,200 C40,180 40,160 60,140 M200,200 C180,180 160,180 140,200 C160,180 160,160 140,140" />
      
      <!-- Decorative lines -->
      <path fill="none" stroke="#f3a83c" stroke-width="0.6" opacity="0.4" 
            d="M0,100 Q 50,120 100,100 Q 150,80 200,100 M100,0 Q 120,50 100,100 Q 80,150 100,200" />
      
      <!-- Subtle corner accents -->
      <path fill="none" stroke="#f3a83c" stroke-width="1" opacity="0.3" 
            d="M20,20 Q 40,10 50,30 Q 30,40 20,20 M180,20 Q 160,10 150,30 Q 170,40 180,20 M20,180 Q 40,190 50,170 Q 30,160 20,180 M180,180 Q 160,190 150,170 Q 170,160 180,180" />
    </pattern>
  </defs>
  <rect width="100%" height="100%" fill="url(#arabesque-pattern)" />
</svg> 