<?xml version="1.0" encoding="UTF-8"?>
<svg width="600" height="600" viewBox="0 0 600 600" xmlns="http://www.w3.org/2000/svg">
  <defs>
    <pattern id="islamic-pattern" x="0" y="0" width="200" height="200" patternUnits="userSpaceOnUse">
      <!-- Base star pattern -->
      <path fill="none" stroke="#f3a83c" stroke-width="1.5" opacity="0.7" d="M100,16.7L116.7,50 150,66.7 116.7,83.3 100,116.7 83.3,83.3 50,66.7 83.3,50z" />
      <path fill="none" stroke="#f3a83c" stroke-width="1.5" opacity="0.7" d="M0,16.7L16.7,50 50,66.7 16.7,83.3 0,116.7 -16.7,83.3 -50,66.7 -16.7,50z" />
      <path fill="none" stroke="#f3a83c" stroke-width="1.5" opacity="0.7" d="M200,16.7L216.7,50 250,66.7 216.7,83.3 200,116.7 183.3,83.3 150,66.7 183.3,50z" />
      <path fill="none" stroke="#f3a83c" stroke-width="1.5" opacity="0.7" d="M100,-83.3L116.7,-50 150,-33.3 116.7,-16.7 100,16.7 83.3,-16.7 50,-33.3 83.3,-50z" />
      <path fill="none" stroke="#f3a83c" stroke-width="1.5" opacity="0.7" d="M100,116.7L116.7,150 150,166.7 116.7,183.3 100,216.7 83.3,183.3 50,166.7 83.3,150z" />
      
      <!-- Geometric connections -->
      <path fill="none" stroke="#f3a83c" stroke-width="0.75" opacity="0.3" d="M0,0 L50,50 M50,50 L100,0 M100,0 L150,50 M150,50 L200,0 M0,100 L50,50 M50,50 L100,100 M100,100 L150,50 M150,50 L200,100 M0,200 L50,150 M50,150 L100,200 M100,200 L150,150 M150,150 L200,200 M0,0 L50,150 M50,150 L100,0 M100,0 L150,150 M150,150 L200,0" />
    </pattern>
  </defs>
  <rect width="100%" height="100%" fill="url(#islamic-pattern)" />
</svg> 